<?xml version="1.0" encoding="UTF-8"?>
<svg width="217px" height="73px" viewBox="0 0 217 73" version="1.1" xmlns="http://www.w3.org/2000/svg" xmlns:xlink="http://www.w3.org/1999/xlink">
    <!-- Generator: Sketch 61.2 (89653) - https://sketch.com -->
    <title>appstore</title>
    <desc>Created with Sketch.</desc>
    <g id="Final" stroke="none" stroke-width="1" fill="none" fill-rule="evenodd">
        <g id="appstore">
            <rect id="Rectangle" stroke="#BFEBF3" fill="#133996" fill-rule="nonzero" x="0.5" y="0.5" width="216" height="72" rx="19.5"></rect>
            <text id="Get-it-on-the" font-family="CircularPro-Book, Circular Pro" font-size="14" font-weight="300" fill="#BFEBF3">
                <tspan x="79" y="32">Get it on the</tspan>
            </text>
            <path d="M90.898,50 L85.57,36.698 L84.598,36.698 L79.216,50 L81.178,50 L82.528,46.544 L87.586,46.544 L88.936,50 L90.898,50 Z M86.974,44.852 L83.14,44.852 L85.066,39.83 L86.974,44.852 Z M97.6269,40.118 C96.2409,40.118 95.0889,40.676 94.1889,41.81 L94.1889,40.352 L92.4609,40.352 L92.4609,53.978 L94.1889,53.978 L94.1889,48.596 C95.0709,49.694 96.2049,50.234 97.6089,50.234 C98.9949,50.234 100.147,49.748 101.065,48.776 C101.983,47.786 102.451,46.598 102.451,45.176 C102.451,43.772 101.983,42.584 101.065,41.594 C100.147,40.604 98.9949,40.118 97.6269,40.118 Z M100.723,45.158 C100.723,46.148 100.417,46.976 99.8049,47.642 C99.1929,48.308 98.4009,48.65 97.4109,48.65 C96.4209,48.65 95.6289,48.308 95.0169,47.642 C94.4229,46.976 94.1169,46.148 94.1169,45.158 C94.1169,44.204 94.4229,43.376 95.0169,42.71 C95.6289,42.044 96.4209,41.702 97.4109,41.702 C98.4009,41.702 99.1929,42.044 99.8049,42.71 C100.417,43.376 100.723,44.186 100.723,45.158 Z M109.686,40.118 C108.3,40.118 107.148,40.676 106.248,41.81 L106.248,40.352 L104.52,40.352 L104.52,53.978 L106.248,53.978 L106.248,48.596 C107.13,49.694 108.264,50.234 109.668,50.234 C111.054,50.234 112.206,49.748 113.124,48.776 C114.042,47.786 114.51,46.598 114.51,45.176 C114.51,43.772 114.042,42.584 113.124,41.594 C112.206,40.604 111.054,40.118 109.686,40.118 Z M112.782,45.158 C112.782,46.148 112.476,46.976 111.864,47.642 C111.252,48.308 110.46,48.65 109.47,48.65 C108.479,48.65 107.688,48.308 107.076,47.642 C106.482,46.976 106.176,46.148 106.176,45.158 C106.176,44.204 106.482,43.376 107.076,42.71 C107.688,42.044 108.479,41.702 109.47,41.702 C110.46,41.702 111.252,42.044 111.864,42.71 C112.476,43.376 112.782,44.186 112.782,45.158 Z M124.715,50.216 C125.975,50.216 127.019,49.856 127.847,49.154 C128.693,48.452 129.107,47.534 129.107,46.4 C129.107,45.104 128.459,44.078 127.181,43.304 C126.875,43.124 126.317,42.836 125.507,42.458 C124.697,42.08 124.193,41.81 123.959,41.666 C123.203,41.216 122.825,40.658 122.825,39.956 C122.825,38.876 123.725,38.156 124.931,38.156 C125.993,38.156 126.893,38.624 127.613,39.578 L128.819,38.426 C127.865,37.112 126.551,36.464 124.913,36.464 C123.707,36.464 122.735,36.806 121.997,37.508 C121.259,38.192 120.899,39.038 120.899,40.064 C120.899,41.324 121.565,42.386 122.897,43.232 C123.239,43.43 123.725,43.682 124.391,43.988 C125.057,44.294 125.525,44.51 125.759,44.636 C126.677,45.158 127.145,45.77 127.145,46.49 C127.145,47.624 126.209,48.506 124.697,48.506 C123.401,48.506 122.231,47.804 121.511,46.382 L120.179,47.48 C121.043,49.262 122.789,50.216 124.715,50.216 Z M136.662,48.092 C136.068,48.47 135.492,48.65 134.934,48.65 C133.89,48.65 133.368,48.02 133.368,46.742 L133.368,41.828 L136.788,41.828 L136.788,40.352 L133.368,40.352 L133.368,36.932 L131.676,36.932 L131.676,40.352 L129.948,40.352 L129.948,41.828 L131.658,41.828 L131.658,46.616 C131.658,48.92 132.702,50.234 134.736,50.234 C135.762,50.234 136.608,49.964 137.31,49.424 L136.662,48.092 Z M143.033,50.234 C144.491,50.234 145.697,49.748 146.651,48.776 C147.605,47.786 148.091,46.58 148.091,45.158 C148.091,43.754 147.605,42.566 146.651,41.576 C145.697,40.586 144.491,40.1 143.033,40.1 C141.557,40.1 140.333,40.586 139.379,41.576 C138.425,42.548 137.957,43.736 137.957,45.158 C137.957,46.58 138.425,47.786 139.379,48.776 C140.333,49.748 141.557,50.234 143.033,50.234 Z M146.363,45.158 C146.363,46.112 146.039,46.94 145.391,47.624 C144.743,48.308 143.951,48.65 143.033,48.65 C142.115,48.65 141.323,48.308 140.675,47.624 C140.027,46.94 139.703,46.112 139.703,45.158 C139.703,44.204 140.027,43.394 140.675,42.728 C141.323,42.044 142.115,41.702 143.033,41.702 C143.951,41.702 144.743,42.044 145.391,42.728 C146.039,43.394 146.363,44.204 146.363,45.158 Z M151.88,50 L151.88,44.888 C151.88,42.818 152.996,41.756 154.526,41.756 C154.85,41.756 155.192,41.81 155.534,41.918 L155.696,40.244 C155.318,40.154 154.94,40.1 154.562,40.1 C153.284,40.1 152.348,40.658 151.79,41.774 L151.79,40.352 L150.152,40.352 L150.152,50 L151.88,50 Z M165.655,44.996 C165.655,43.502 165.223,42.314 164.341,41.432 C163.477,40.55 162.361,40.118 160.993,40.118 C159.553,40.118 158.383,40.586 157.465,41.54 C156.565,42.494 156.115,43.682 156.115,45.14 C156.115,47.642 157.627,50.216 161.263,50.216 C162.865,50.216 164.449,49.604 165.403,48.866 L164.665,47.552 C163.783,48.2 162.451,48.632 161.299,48.632 C159.283,48.632 158.203,47.516 157.915,45.878 L165.601,45.878 C165.637,45.41 165.655,45.122 165.655,44.996 Z M157.915,44.384 C158.203,42.782 159.409,41.648 160.993,41.648 C162.577,41.648 163.783,42.71 163.873,44.384 L157.915,44.384 Z" id="Shape" fill="#BFEBF3" fill-rule="nonzero"></path>
            <path d="M58.7077,41.6324 C57.88,40.4429 57.4653,39.0912 57.4653,37.6124 C57.4653,36.2429 57.8624,34.9971 58.6371,33.88 C59.0694,33.25 59.7541,32.5459 60.6929,31.7535 C60.0806,30.9947 59.4471,30.3824 58.8171,29.95 C57.6982,29.1753 56.4206,28.7782 54.9771,28.7782 C54.0929,28.7782 53.0482,28.9953 51.8588,29.3906 C50.6677,29.8053 49.8029,30.0047 49.2806,30.0047 C48.8641,30.0047 48.0347,29.8247 46.7906,29.4629 C45.5288,29.1029 44.4824,28.9229 43.6,28.9229 C41.5247,28.9229 39.8306,29.7894 38.4806,31.5188 C37.1288,33.2676 36.4441,35.5035 36.4441,38.2618 C36.4441,41.2176 37.3459,44.2282 39.0929,47.3306 C40.8771,50.4312 42.6629,52 44.5194,52 C45.1141,52 45.9082,51.8024 46.9,51.3859 C47.8759,50.9906 48.7388,50.7912 49.4606,50.7912 C50.2,50.7912 51.1177,50.9712 52.1818,51.3682 C53.2653,51.7459 54.0929,51.9453 54.7071,51.9453 C56.2388,51.9453 57.79,50.7718 59.3412,48.4106 C60.3859,46.8418 61.1077,45.3276 61.5577,43.9035 C60.4953,43.5806 59.5388,42.8235 58.7077,41.6324 L58.7077,41.6324 Z M57.8641,47.4435 C56.7047,49.2082 55.5824,50.1824 54.7053,50.1824 C54.4459,50.1824 53.8953,50.0994 52.7977,49.7165 C51.5747,49.2594 50.4506,49.0282 49.4588,49.0282 C48.5041,49.0282 47.4206,49.2718 46.2153,49.7606 C45.1918,50.1894 44.6888,50.2353 44.5194,50.2353 C43.4112,50.2353 42.0277,48.8906 40.63,46.4641 C39.0012,43.5718 38.2088,40.8894 38.2088,38.2618 C38.2088,35.9041 38.7559,34.0494 39.8712,32.6041 C40.8929,31.2965 42.0788,30.6876 43.6,30.6876 C44.3077,30.6876 45.1918,30.8429 46.2982,31.1588 C48.1529,31.6971 48.8465,31.7694 49.2788,31.7694 C50.0288,31.7694 51.0612,31.5365 52.4147,31.0653 C53.4541,30.7194 54.3153,30.5429 54.9735,30.5429 C56.0482,30.5429 56.9765,30.8235 57.8147,31.4059 C57.9312,31.4871 58.0529,31.5788 58.1747,31.6794 C57.7724,32.0959 57.4441,32.4929 57.1829,32.8741 C56.1947,34.2965 55.6953,35.89 55.6953,37.6141 C55.6953,39.4635 56.2194,41.1541 57.2553,42.6435 C57.88,43.5347 58.5753,44.2459 59.3412,44.7718 C58.9582,45.6524 58.4624,46.5471 57.8641,47.4435 L57.8641,47.4435 Z M50.6306,28.9953 C50.2159,29.1224 49.6035,29.23 48.7565,29.3024 C48.7935,27.5182 49.2612,25.9671 50.1629,24.67 C51.0647,23.3694 52.5771,22.4871 54.6718,22 C54.7071,22.1624 54.7424,22.2894 54.76,22.3971 C54.76,22.5224 54.7794,22.63 54.7794,22.7571 C54.7794,23.4965 54.5994,24.3259 54.2571,25.21 C53.8971,26.1118 53.3377,26.9412 52.5788,27.6982 C51.9294,28.3459 51.28,28.7782 50.6306,28.9953 Z" id="Shape" fill="#BFEBF3" fill-rule="nonzero"></path>
        </g>
    </g>
</svg>